<?xml version="1.0" encoding="UTF-8" standalone="no"?>
<!-- Created with Inkscape (http://www.inkscape.org/) -->

<svg
   xmlns:dc="http://purl.org/dc/elements/1.1/"
   xmlns:cc="http://creativecommons.org/ns#"
   xmlns:rdf="http://www.w3.org/1999/02/22-rdf-syntax-ns#"
   xmlns:svg="http://www.w3.org/2000/svg"
   xmlns="http://www.w3.org/2000/svg"
   xmlns:sodipodi="http://sodipodi.sourceforge.net/DTD/sodipodi-0.dtd"
   xmlns:inkscape="http://www.inkscape.org/namespaces/inkscape"
   version="1.1"
   id="svg1427"
   width="655.35999"
   height="510.72"
   viewBox="0 0 655.35999 510.72"
   sodipodi:docname="logo_jssudd.svg"
   inkscape:version="0.92.4 5da689c313, 2019-01-14">
  <metadata
     id="metadata1433">
    <rdf:RDF>
      <cc:Work
         rdf:about="">
        <dc:format>image/svg+xml</dc:format>
        <dc:type
           rdf:resource="http://purl.org/dc/dcmitype/StillImage" />
        <dc:title></dc:title>
      </cc:Work>
    </rdf:RDF>
  </metadata>
  <defs
     id="defs1431" />
  <sodipodi:namedview
     pagecolor="#ffffff"
     bordercolor="#666666"
     borderopacity="1"
     objecttolerance="10"
     gridtolerance="10"
     guidetolerance="10"
     inkscape:pageopacity="0"
     inkscape:pageshadow="2"
     inkscape:window-width="1640"
     inkscape:window-height="949"
     id="namedview1429"
     showgrid="false"
     inkscape:zoom="0.72153039"
     inkscape:cx="240.13222"
     inkscape:cy="210.76753"
     inkscape:window-x="1386"
     inkscape:window-y="54"
     inkscape:window-maximized="1"
     inkscape:current-layer="svg1427" />
  <path
     style="fill:#000000;stroke-width:0.31999999"
     d="m 130.14607,487.25278 c -9.42663,-1.00275 -18.24263,-7.59347 -21.85676,-16.33987 -1.55218,-3.75635 -2.01421,-6.18326 -2.03568,-10.69296 -0.016,-3.37024 0.11371,-4.62515 0.68344,-6.61014 2.8819,-10.04061 9.90764,-16.86484 20.2416,-19.66103 3.06076,-0.82819 9.25693,-0.76006 12.64,0.13898 9.15203,2.43209 16.50072,9.47997 19.2398,18.45219 0.79876,2.61645 0.88037,3.34851 0.8919,8 0.0118,4.78022 -0.0473,5.30051 -0.89073,7.84 -4.15847,12.52045 -15.99566,20.24698 -28.91357,18.87283 z m 52.2326,-43.97401 c -4.46632,-1.04954 -7.76581,-2.60218 -11.12517,-5.23514 -2.54524,-1.99491 -4.45732,-4.43069 -7.5219,-9.58205 -1.4402,-2.42089 -8.20883,-13.83363 -15.0414,-25.36163 l -12.42284,-20.96 -24.06435,-0.082 -24.06434,-0.082 v -13.43802 -13.43798 h 31.6 31.6 l 12.54585,17.99869 c 6.90022,9.89926 12.73967,18.26352 12.97656,18.5872 0.39475,0.53939 1.872,-0.85802 17.69416,-16.73783 9.49488,-9.52947 17.30694,-17.44883 17.36013,-17.59859 0.0532,-0.14973 -3.69085,-3.09347 -8.32,-6.54166 -4.62919,-3.44819 -12.1967,-9.08259 -16.8167,-12.52087 l -8.4,-6.2488 V 304.84902 277.65995 H 168.15758 157.9365 l -2.07716,4.31954 c -4.42776,9.2077 -8.93608,15.65891 -15.54494,22.24412 -4.26459,4.24934 -7.20529,6.63982 -12.13123,9.86142 -10.20231,6.67239 -20.33077,10.30106 -32.8445,11.76711 -8.07981,0.94659 -18.81651,0.22576 -26.72926,-1.79456 -22.19803,-5.66765 -41.17489,-21.77486 -50.26199,-42.66145 l -1.55588,-3.57618 -37.926444,-0.0813 -37.92643,-0.0813 v -28.31871 -28.31869 h 38.55708 38.557084 l 1.6454,-3.28 c 12.37995,-24.67872 33.96758,-39.99343 60.56339,-42.96492 14.56033,-1.62678 30.08144,1.42297 43.36579,8.52098 11.03264,5.89489 21.53333,15.75819 28.17207,26.46205 1.85449,2.99006 4.46109,7.91524 5.24047,9.90189 l 0.53353,1.36 h 11.52573 11.52572 l -0.0831,-15.11013 -0.0831,-15.11013 -4,-2.44898 c -5.18874,-3.17676 -20.25552,-12.30402 -36.16,-21.90526 -12.02644,-7.26012 -12.78038,-7.77117 -15.53181,-10.52801 -2.32506,-2.32963 -3.18958,-3.47612 -4.41116,-5.84992 -2.18744,-4.25069 -2.85423,-7.02781 -2.86383,-11.92757 -0.01,-4.86184 0.64043,-7.58835 2.84338,-11.92757 l 1.4989,-2.95243 30.75226,-30.762799 c 33.241,-33.252451 32.07108,-32.187123 37.4722,-34.122586 10.2718,-3.680857 22.31622,-0.128828 28.70751,8.466173 0.90221,1.213277 8.23236,13.323939 16.28925,26.912586 l 14.64887,24.706626 24.17718,0.082 24.17718,0.082 v 13.43801 13.43799 l -31.76,-0.0161 -31.76,-0.0161 -6.24,-9.00237 c -3.432,-4.95131 -9.24636,-13.31321 -12.9208,-18.58199 l -6.68076,-9.5796 -17.39923,17.39701 c -9.56956,9.56835 -17.3992,17.49337 -17.3992,17.61114 0,0.11778 2.772,2.27257 6.16,4.78843 3.388,2.51586 10.948,8.14162 16.79999,12.5017 l 10.64,7.92741 v 26.24521 26.24526 h 10.6801 10.68013 l 1.3392,-2.79099 c 7.15971,-14.92122 19.26547,-27.67591 33.30057,-35.08564 15.57536,-8.22291 33.28032,-10.77532 50.33991,-7.2572 17.98873,3.70973 33.88614,13.75256 44.85139,28.33383 3.24278,4.31216 6.70512,10.07053 8.36528,13.91263 l 1.24342,2.87765 38.8,0.005 38.8,0.005 v 28.32 28.32 h -38.66217 -38.66218 l -1.07926,2.48 c -2.64237,6.07169 -7.46634,13.90513 -11.57741,18.8 -12.03213,14.3261 -27.63456,23.28413 -46.0384,26.43264 -3.66938,0.62774 -5.42778,0.73571 -11.98058,0.73571 -8.6656,0 -12.8406,-0.52851 -20.279,-2.56713 -17.29082,-4.73888 -32.84,-16.23223 -42.96288,-31.75639 -2.13581,-3.27543 -5.90909,-10.5977 -6.66036,-12.92483 l -0.38739,-1.2 h -11.0152 -11.01517 v 16.1272 16.12721 l 11.76,7.12425 c 6.468,3.91836 16.08,9.74096 21.36,12.93916 5.28,3.19818 11.328,6.86263 13.44,8.1432 5.50756,3.3394 7.48301,4.8168 9.79581,7.32612 2.65997,2.88592 3.97171,5.11712 5.31495,9.04028 2.53264,7.39712 1.47276,15.41479 -2.93652,22.21418 -1.53209,2.36259 -58.91772,60.02032 -61.77424,62.06717 -2.55817,1.83305 -5.36099,3.20841 -8.21484,4.03104 -3.04867,0.87878 -9.19502,1.12525 -11.94515,0.47901 z M 94.44228,301.80561 c 11.71154,-1.53309 21.72091,-6.30544 30.13312,-14.36713 3.14317,-3.0122 7.72327,-8.6654 7.72327,-9.53281 0,-0.13515 -19.944,-0.24572 -44.32,-0.24572 -24.376,0 -44.32,0.12226 -44.32,0.27168 0,0.70468 4.3129,5.99415 7.34515,9.00832 11.52533,11.4566 27.56035,16.94416 43.43846,14.86566 z m 213.06592,-0.28315 c 13.16378,-2.19776 25.38605,-9.67911 33.52121,-20.5186 1.18208,-1.57503 2.14925,-2.97174 2.14925,-3.1038 0,-0.13206 -20.03257,-0.24011 -44.5168,-0.24011 h -44.5168 l 0.56535,0.88 c 2.8919,4.50128 8.94061,10.68564 13.92301,14.23528 6.68518,4.76273 15.49232,8.09231 24.30524,9.18874 3.18362,0.39607 10.96516,0.16026 14.56954,-0.44151 z M 2.1272863,266.36198 c 2.23624,-1.09813 4.14549,-3.19542 5.11155,-5.61496 0.70798,-1.77315 0.72169,-2.05932 0.73068,-15.24707 l 0.009,-13.44 h -7.15048 -7.15048 l -6.4e-4,2.72 -6.4e-4,2.72 3.57447,0.0907 3.57446,0.0907 -0.10345,10.3093 c -0.0972,9.68533 -0.14352,10.38677 -0.76541,11.5893 -1.20061,2.32155 -4.13288,3.0384 -6.19034,1.51335 -1.02798,-0.76197 -2.25542,-2.86099 -2.26244,-3.86896 -0.005,-0.67554 -0.11548,-0.73647 -1.04526,-0.57496 -0.5720003,0.0994 -2.2437803,0.35027 -3.7150703,0.55756 l -2.67506,0.37689 0.17678,1.08936 c 0.25494,1.571 1.70818,4.59876 2.71144,5.64918 2.26944,2.37609 4.6361903,3.11393 9.6619103,3.01213 3.30067,-0.0669 3.86849,-0.16711 5.50862,-0.97252 z m 29.7059837,0.0567 c 2.33222,-1.08223 3.818,-2.42411 4.91428,-4.43833 0.49202,-0.904 0.8443,-1.69116 0.78285,-1.74925 -0.0615,-0.0581 -1.49244,-0.20774 -3.17996,-0.33257 l -3.06823,-0.22696 -0.69023,1.16986 c -0.4228,0.7166 -1.15212,1.36285 -1.88233,1.66795 -1.58489,0.66221 -4.16579,0.44264 -5.43701,-0.46255 -1.13885,-0.81093 -2.1763,-3.0719 -2.49014,-5.42691 l -0.22389,-1.68 h 8.67003 8.67003 v -1.41185 c 0,-2.2383 -0.88405,-6.26642 -1.77491,-8.08728 -1.91122,-3.90638 -6.13066,-6.12258 -10.9842,-5.76929 -5.15274,0.37508 -8.09397,2.13057 -10.04949,5.99811 -2.78749,5.51297 -2.20173,13.83938 1.25793,17.88121 2.50765,2.92963 5.11294,3.89461 10.19067,3.77457 3.00055,-0.0709 3.78188,-0.20475 5.2946,-0.90671 z M 20.97095,248.83604 c 0.30316,-1.91779 1.06978,-3.33733 2.29588,-4.25124 1.22042,-0.90969 4.02227,-0.91864 5.26368,-0.0168 1.01684,0.73868 2.17406,2.93419 2.47304,4.69194 l 0.20412,1.2 h -5.24671 -5.24671 l 0.2567,-1.62389 z m 41.99773,17.95666 c 4.0841,-1.04453 6.30708,-2.68171 7.59453,-5.5932 1.54451,-3.49281 1.02197,-7.97938 -1.21813,-10.4589 -1.98828,-2.20078 -4.39485,-3.1819 -12.08641,-4.92741 -5.50382,-1.24904 -7.04646,-2.15916 -7.40504,-4.36881 -0.28796,-1.77452 0.57602,-3.38346 2.19423,-4.08613 4.28975,-1.86273 9.56015,-0.71164 11.05042,2.41347 0.5914,1.24019 0.60756,1.24268 4.60412,0.71058 1.69183,-0.22526 2.83627,-0.52506 2.83627,-0.743 0,-1.25866 -1.23028,-3.66013 -2.55242,-4.98228 -1.87499,-1.87498 -4.15675,-2.75421 -8.32424,-3.20759 -6.99712,-0.76121 -12.93901,0.94924 -15.35495,4.42012 -2.42518,3.48417 -2.02451,8.86927 0.86955,11.68669 1.73723,1.69124 4.04769,2.62103 10.17563,4.09499 5.81101,1.39773 7.83311,2.29457 8.62464,3.82524 1.01803,1.96865 0.17969,4.47625 -1.84835,5.52871 -1.44146,0.74805 -5.0311,1.27449 -6.94157,1.01802 -3.70161,-0.49692 -5.67025,-1.74893 -6.71468,-4.27042 -0.36889,-0.89058 -0.56337,-1.02731 -1.26476,-0.88926 -0.45587,0.0897 -2.02441,0.3368 -3.48565,0.54904 l -2.6568,0.3859 0.21534,1.00073 c 0.80616,3.74642 4.32516,6.88609 8.98116,8.01306 2.93067,0.70936 9.7157,0.64553 12.70711,-0.11955 z m 25.51486,0.26196 c 1.57396,-0.47157 3.35451,-1.95079 4.47508,-3.71774 l 0.88849,-1.40101 0.20335,1.862 c 0.11184,1.02411 0.23144,2.15001 0.26577,2.50201 0.0573,0.58766 0.33067,0.64746 3.34244,0.73119 l 3.28,0.0912 V 253.67114 240.21995 H 97.44614 93.9536 l -0.10746,8.4 -0.10747,8.4 -0.89544,1.82344 c -1.08909,2.21781 -2.54377,3.24323 -4.60088,3.24323 -1.71994,0 -2.89981,-0.7881 -3.78368,-2.52732 -0.58717,-1.15539 -0.64812,-2.00565 -0.73828,-10.29935 l -0.0983,-9.04 h -3.5017 -3.50172 v 9.58425 c 0,5.68933 0.14127,10.24299 0.34763,11.20521 0.85353,3.97986 3.91442,6.41054 8.07262,6.41054 1.22402,0 2.7741,-0.16436 3.44462,-0.36526 z m 49.42789,-0.12569 c 2.51844,-0.64827 4.54592,-1.929 5.73734,-3.62419 0.90215,-1.2836 0.9699,-1.57703 0.9699,-4.20093 0,-2.6482 -0.0609,-2.90501 -0.99434,-4.19358 -1.36277,-1.88126 -3.5004,-2.9949 -7.64934,-3.98511 -5.58025,-1.3318 -6.9231,-1.81745 -7.60968,-2.75208 -0.7753,-1.0554 -0.44604,-2.32083 0.857,-3.29369 0.72707,-0.54284 1.35605,-0.65947 3.55636,-0.65947 3.02865,0 4.11686,0.51837 4.94275,2.35449 0.38335,0.85227 0.60298,1.00269 1.28,0.87663 0.44949,-0.0837 1.80463,-0.24604 3.01142,-0.36077 l 2.19417,-0.20861 -0.20058,-1.00292 c -0.95003,-4.75015 -8.23429,-7.46041 -15.56799,-5.7924 -4.16279,0.94681 -6.54936,3.34817 -6.92271,6.96562 -0.22472,2.17723 0.29587,3.77265 1.75973,5.39296 1.58821,1.75796 3.00841,2.392 7.84419,3.50203 2.31231,0.53077 4.65671,1.15412 5.20978,1.3852 2.72574,1.13889 2.68646,4.10706 -0.0683,5.1591 -1.03758,0.39626 -2.093,0.49394 -4.23184,0.39168 -3.28171,-0.1569 -4.32526,-0.65327 -5.05743,-2.40559 -0.44695,-1.06971 -0.53904,-1.12239 -1.65327,-0.94573 -0.64897,0.1029 -2.00795,0.28369 -3.01995,0.40175 -2.21241,0.25812 -2.28454,0.53096 -0.79797,3.01868 1.15372,1.93069 3.49335,3.58391 5.80928,4.10493 2.19188,0.4931 8.4837,0.41714 10.60145,-0.128 z m 32.29394,9.6e-4 c 4.22932,-1.10159 7.43426,-3.61911 9.08196,-7.13397 l 0.85134,-1.81601 0.0935,-13.05061 0.0935,-13.0506 -3.61353,0.0906 -3.61352,0.0906 -0.16,12.32 c -0.15655,12.05393 -0.17574,12.34947 -0.8887,13.68429 -2.27805,4.26507 -9.46028,5.17717 -12.77603,1.62248 -1.79971,-1.92939 -1.84733,-2.30849 -1.95274,-15.54677 l -0.0975,-12.24 h -3.66245 -3.66253 l 0.005,11.92 c 0.005,12.65794 0.16864,14.40357 1.61596,17.24054 1.42182,2.78702 4.51084,5.0348 8.12605,5.9131 2.34796,0.57042 8.29683,0.54585 10.55997,-0.0436 z m 100.20843,0.0174 c 0.8752,-0.25991 2.30118,-0.97729 3.16886,-1.59417 1.59348,-1.13293 4.189,-4.59948 3.75239,-5.01167 -0.13002,-0.12274 -1.60439,-0.32119 -3.27639,-0.441 l -3.04,-0.21784 -0.60131,1.13177 c -0.8191,1.54166 -2.36841,2.23709 -4.57609,2.05401 -1.01613,-0.0843 -2.08653,-0.40284 -2.59588,-0.77259 -1.18899,-0.86317 -2.24697,-3.11098 -2.50201,-5.31595 l -0.21283,-1.84 h 8.68406 8.68406 v -0.77684 c 0,-1.73688 -0.72755,-5.83317 -1.31484,-7.40284 -1.85082,-4.94677 -6.08938,-7.49269 -11.80516,-7.09087 -7.38067,0.51886 -11.51254,5.42647 -11.50972,13.67055 0.003,4.87448 1.36899,8.75014 3.91491,11.09688 1.61181,1.48571 2.40803,1.96282 4.23481,2.53758 1.79767,0.5656 7.05271,0.54982 8.99514,-0.027 z m -9.65472,-17.68738 c 0.57238,-3.24546 1.94355,-4.95519 4.29219,-5.35199 2.86119,-0.4834 5.10144,1.50254 5.77757,5.12177 l 0.2672,1.43022 h -5.2743 -5.27431 z m 40.37552,16.71648 c 3.11907,-1.59029 4.32659,-3.25682 4.5447,-6.27229 0.1865,-2.57839 -0.53625,-4.38905 -2.41046,-6.0388 -1.59517,-1.40411 -3.91197,-2.26446 -9.48285,-3.52146 -3.99363,-0.90111 -5.21955,-1.81233 -4.87917,-3.62669 0.27799,-1.48179 1.48173,-2.164 4.17738,-2.36748 2.5329,-0.1912 4.26067,0.39757 5.18122,1.76558 0.39056,0.58044 0.75584,1.1791 0.81168,1.33036 0.1511,0.4092 6.02294,-0.32186 6.01452,-0.74882 -0.0192,-0.97423 -1.34016,-3.08163 -2.65971,-4.24316 -2.19408,-1.93129 -4.32192,-2.51905 -9.01325,-2.48967 -3.21606,0.0202 -4.15196,0.14485 -5.76,0.76747 -3.74624,1.45053 -5.49676,4.15493 -5.21459,8.05603 0.29066,4.01844 2.5865,5.71507 10.16739,7.51372 4.11252,0.97573 5.10333,1.32564 5.84,2.0623 0.48797,0.48796 0.8872,1.23886 0.8872,1.66866 0,1.13697 -1.13238,2.39664 -2.49456,2.77496 -1.57913,0.43859 -5.3928,0.39059 -6.77436,-0.0852 -0.96096,-0.33098 -2.27712,-1.74007 -2.63882,-2.82513 -0.076,-0.22804 -0.9625,-0.21568 -2.82154,0.0393 -3.77542,0.5179 -3.61276,0.42017 -3.02812,1.81939 0.76211,1.82402 1.9503,3.203 3.58563,4.16137 2.42889,1.42342 3.9712,1.70214 8.93795,1.61524 l 4.52618,-0.0792 z m 63.90925,0.36632 c 1.02585,-0.50299 2.33161,-1.38093 2.90166,-1.95098 1.00198,-1.00199 2.92176,-3.95925 2.70138,-4.16124 -0.0595,-0.0545 -1.54823,-0.19469 -3.30823,-0.31142 l -3.2,-0.21224 -0.49344,1.02577 c -0.73872,1.53563 -2.31472,2.27191 -4.55085,2.1261 -1.17785,-0.0768 -2.16076,-0.35004 -2.72,-0.75615 -1.19737,-0.86948 -2.25529,-3.11202 -2.511,-5.32264 l -0.21284,-1.84 h 8.68407 8.68406 l -0.0112,-1.2 c -0.0218,-2.3516 -0.92969,-6.29959 -1.90333,-8.27731 -1.19596,-2.42938 -3.26604,-4.34824 -5.55094,-5.14542 -2.46074,-0.85854 -7.45706,-0.77026 -9.86163,0.17426 -4.67539,1.83649 -7.30483,6.46281 -7.30266,12.84847 0.003,4.88121 1.36883,8.74996 3.92448,11.10571 2.67514,2.46583 4.31511,2.97073 9.34525,2.87712 3.14992,-0.0586 3.7161,-0.16165 5.38518,-0.98003 z m -11.13498,-17.2428 c 0.71533,-4.29556 3.80205,-6.32511 7.10198,-4.66964 1.66615,0.83584 2.46612,2.07368 2.92394,4.52428 l 0.28125,1.50536 h -5.26682 -5.26681 z m 33.77466,17.95474 c 1.57017,-0.47043 3.35388,-1.94981 4.46675,-3.70462 l 0.88019,-1.3879 0.22739,2.56889 0.22743,2.56889 h 3.32668 3.32669 v -13.44 -13.44 h -3.48557 -3.48553 l -0.12707,8.4 c -0.11572,7.64964 -0.18605,8.52863 -0.78743,9.84 -2.02128,4.40764 -6.58131,4.99459 -8.70717,1.12076 -0.44761,-0.81568 -0.54262,-2.34997 -0.62921,-10.16076 l -0.10195,-9.2 h -3.49805 -3.49802 v 9.58425 c 0,5.68933 0.14128,10.24299 0.34765,11.20521 0.8535,3.97986 3.9144,6.41054 8.07261,6.41054 1.22403,0 2.77411,-0.16436 3.44461,-0.36526 z m -425.191624,-4.83474 0.93363,-4.72 h 3.81813 c 3.48582,0 3.80377,0.0487 3.65317,0.56 -0.24831,0.84296 -1.79817,8.36321 -1.79817,8.72509 0,0.1732 0.84837,0.31491 1.88528,0.31491 h 1.88528 l 0.48484,-2.16 c 0.26666,-1.188 0.73881,-3.348 1.04922,-4.8 l 0.56437,-2.64 h 2.9855 2.98551 v -1.92 -1.92 h -2.56 c -1.408,0 -2.56,-0.0562 -2.56,-0.12477 0,-0.15678 1.21576,-6.1831 1.44351,-7.15523 0.15638,-0.66747 0.34333,-0.72 2.56258,-0.72 h 2.39391 v -1.92 -1.92 h -1.92 c -1.056,0 -1.92,-0.1099 -1.92,-0.24423 0,-0.13433 0.432,-2.25643 0.96,-4.71577 0.528,-2.45934 0.96,-4.50944 0.96,-4.55577 0,-0.0463 -0.8511,-0.0842 -1.89133,-0.0842 h -1.89134 l -0.64213,2.8 c -0.35317,1.54 -0.82688,3.7 -1.05269,4.8 l -0.41056,2 h -3.77598 c -2.07678,0 -3.77597,-0.0522 -3.77597,-0.11599 0,-0.156 1.54818,-7.85403 1.76257,-8.76401 0.16119,-0.6842 0.0762,-0.72 -1.71019,-0.72 h -1.8798 l -0.56183,2.64 c -0.30901,1.452 -0.77746,3.612 -1.04101,4.8 l -0.47918,2.16 h -2.84528 -2.84528 v 1.92 1.92 h 2.4 c 1.40343,0 2.4,0.13428 2.4,0.32339 0,0.26853 -0.79911,4.10722 -1.44818,6.95661 -0.15085,0.66225 -0.3432,0.72 -2.39791,0.72 h -2.23391 v 1.92 1.92 h 1.8696 1.8696 l -0.89944,4.08 c -1.27627,5.78937 -1.31244,5.57253 0.91004,5.45597 l 1.82979,-0.096 z m 1.92092,-9.12 c 0.0865,-0.308 0.47499,-2.108 0.86328,-4 l 0.70599,-3.44 h 3.8356 c 3.79127,0 3.83349,0.008 3.65199,0.70217 -0.10099,0.3862 -0.49656,2.1862 -0.87903,4 l -0.69542,3.29783 h -3.81985 c -3.48453,0 -3.80604,-0.0492 -3.66256,-0.56 z m 150.605844,0.56 v -13.44 h -3.52 -3.52 v 13.44 13.44 h 3.52 3.52 z m 79.35999,4.48 c 0.15738,-8.65548 0.17316,-8.82318 0.96,-10.21165 1.19159,-2.10265 2.24176,-2.74835 4.46986,-2.74835 1.41315,0 2.0335,0.15434 2.56931,0.63924 1.68714,1.52685 1.74967,1.91215 1.92083,11.84076 l 0.16,9.28 h 3.4577 3.4577 l -0.0259,-9.97003 c -0.0285,-10.92814 -0.17447,-12.03663 -1.89744,-14.41514 -1.44029,-1.98826 -3.42772,-2.81568 -6.75191,-2.81099 -2.16989,0.003 -2.97888,0.14319 -4,0.69288 -1.46099,0.78648 -3.36934,2.69151 -4.11043,4.10328 l -0.50394,0.96 -0.0128,-1.64 c -0.007,-0.902 -0.10278,-2.09 -0.2128,-2.64 l -0.2,-1 h -3.36742 -3.36742 l 0.2055,2.64 c 0.11303,1.452 0.20637,7.50487 0.20743,13.45083 l 0.003,10.81082 3.44,-0.0908 3.43855,-0.0908 z m 42.88,8.18088 c 4.51911,-1.44283 8.15812,-4.47545 9.94029,-8.28387 3.36093,-7.1821 1.9736,-17.03812 -3.03555,-21.56557 -3.93818,-3.55949 -8.13229,-4.57144 -18.94666,-4.57144 h -7.15808 v 17.6303 17.63029 l 8.72,-0.1389 c 7.15895,-0.11403 9.03508,-0.23949 10.48,-0.70081 z m -11.84,-16.82163 v -11.91338 l 4.24,0.15479 c 5.18429,0.18926 6.81028,0.69913 8.90288,2.79176 2.53908,2.53906 3.65069,6.9455 2.87533,11.3979 -0.54307,3.11846 -1.45901,5.01319 -3.21955,6.65997 -2.34234,2.19099 -3.32643,2.50439 -8.39866,2.67464 l -4.4,0.1477 z m 104.96,16.82163 c 5.64032,-1.8008 9.39459,-5.56908 11.01981,-11.06088 1.29952,-4.39137 0.86077,-10.71375 -1.0209,-14.71068 -1.09011,-2.31556 -4.19488,-5.40855 -6.53529,-6.51051 -3.49114,-1.64375 -5.20755,-1.89064 -14.26362,-2.05165 l -8.4,-0.14936 v 17.6614 17.66139 l 8.72,-0.1389 c 7.15895,-0.11403 9.03507,-0.23949 10.48,-0.70081 z m -11.84,-16.82163 v -11.91338 l 4.24,0.15479 c 5.18429,0.18926 6.81027,0.69913 8.90288,2.79176 4.18535,4.18531 4.13488,13.7485 -0.0949,17.97822 -2.1022,2.1022 -3.69155,2.61033 -8.64803,2.76483 l -4.4,0.13716 z m 95.82896,12.88075 c 1.71034,-2.596 3.20451,-4.75269 3.32039,-4.79265 0.11587,-0.04 1.63536,2.08404 3.37667,4.72 l 3.16598,4.79265 h 3.63402 c 1.99869,0 3.63142,-0.108 3.62832,-0.24 -0.003,-0.132 -2.16314,-3.22046 -4.8,-6.86325 -2.6369,-3.64279 -4.79434,-6.77162 -4.79434,-6.95296 0,-0.28457 5.61725,-8.07988 8.376,-11.62379 l 0.93415,-1.2 h -3.86212 -3.86211 l -2.79296,4.31554 c -1.53613,2.37354 -2.86496,4.30947 -2.95296,4.30205 -0.088,-0.007 -1.41785,-1.94941 -2.95523,-4.31554 l -2.79523,-4.30205 h -3.68477 c -2.02662,0 -3.68477,0.0715 -3.68477,0.15889 0,0.0874 2.07603,2.98363 4.61341,6.4361 l 4.61341,6.27721 -1.62925,2.2839 c -0.8961,1.25615 -3.11613,4.34458 -4.93341,6.86318 -1.81728,2.5186 -3.30416,4.6426 -3.30416,4.72 0,0.0774 1.63783,0.14072 3.63962,0.14072 h 3.63961 z m -299.34895,-29.52 v -2.56 h -3.52 -3.52 v 2.56 2.56 h 3.52 3.52 z m 14.33988,-13.34275 c -1.68108,-2.38351 -7.55418,-8.33402 -10.17988,-10.31406 -3.45443,-2.60498 -5.12215,-3.60226 -9.61026,-5.74684 -7.30179,-3.48907 -13.98196,-4.97272 -22.38974,-4.97272 -8.40779,0 -15.08796,1.48365 -22.38975,4.97272 -6.22236,2.97327 -9.55249,5.26986 -14.21813,9.80539 -2.42487,2.35724 -6.59212,7.17379 -6.59212,7.61922 0,0.0765 19.44894,0.13904 43.21988,0.13904 h 43.21988 z m 211.58011,1.25931 c 0,-0.54462 -4.53997,-5.83138 -6.89744,-8.03202 -4.50019,-4.20082 -8.14893,-6.6987 -13.42256,-9.18893 -10.34022,-4.88272 -20.95139,-6.29521 -32.1695,-4.2822 -12.18307,2.18615 -23.7209,8.9958 -31.39158,18.52733 -1.20941,1.50281 -2.19892,2.84192 -2.19892,2.97582 0,0.13389 19.368,0.24344 43.04,0.24344 23.672,0 43.04,-0.10955 43.04,-0.24344 z m -92,-153.692866 c -9.25276,-1.229613 -18.12409,-8.26337 -21.40035,-16.967578 -5.84694,-15.5339 2.79706,-32.032928 18.94624,-36.163197 3.36477,-0.860561 9.27872,-0.845608 12.72291,0.03217 12.65808,3.225978 21.34736,15.056996 20.51248,27.928995 -0.25088,3.867731 -0.93468,6.466947 -2.63657,10.021747 -5.10563,10.664212 -16.3488,16.715437 -28.14471,15.147863 z"
     id="path1437"
     inkscape:connector-curvature="0" />
</svg>
