<?xml version="1.0" encoding="utf-8"?>
<!-- Generator: Adobe Illustrator 23.1.1, SVG Export Plug-In . SVG Version: 6.00 Build 0)  -->
<svg version="1.1" id="Calque_1" xmlns="http://www.w3.org/2000/svg" xmlns:xlink="http://www.w3.org/1999/xlink" x="0px" y="0px"
	 width="500px" height="500px" viewBox="0 0 500 500" enable-background="new 0 0 500 500" xml:space="preserve">
<circle fill="#FFDD55" cx="-5389.5" cy="-37.7" r="836.7"/>
<g>
	<path d="M-5203.1-610.6c46.7-1,84.6-39.6,83.6-85.1c-1-48.1-39.3-85.2-87-84.2c-45.4,0.9-83.1,39.8-82.2,84.8
		C-5287.7-647.1-5249.8-609.6-5203.1-610.6z"/>
	<path d="M-5576,535c-47.9-0.2-85.3,37.8-85.9,81.7c-0.7,49.4,36.6,87.6,84.4,87.8c46,0.2,84.6-37.8,84.9-83.4
		C-5492.3,574.2-5530.1,535.2-5576,535z"/>
	<path d="M-4965.2-71.1c-2.7-3.5-6.4-6.3-11.2-8.3c-4.8-2-11-3-18.6-3h-18.5v78.9h18.5c7.6,0,13.8-1,18.6-3c4.7-2,8.5-4.8,11.2-8.3
		c2.7-3.5,4.6-7.7,5.5-12.4c1-4.8,1.5-10.1,1.5-15.7s-0.5-10.9-1.5-15.7C-4960.7-63.4-4962.5-67.6-4965.2-71.1z"/>
	<polygon points="-6077.3,-32.5 -6061.7,-32.5 -6059.1,-51.1 -6074.7,-51.1 	"/>
	<path d="M-5876.7-42.4c-1-2.5-2.3-4.7-3.9-6.6c-1.6-1.8-3.7-3.4-6-4.5c-2.3-1.1-5-1.7-7.9-1.7c-3,0-5.8,0.5-8.3,1.6
		c-2.5,1.1-4.6,2.5-6.3,4.4c-1.8,1.9-3.2,4.1-4.2,6.6c-0.9,2.2-1.5,4.6-1.7,7.2h40.1C-5875.3-37.9-5875.9-40.2-5876.7-42.4z"/>
	<path d="M-4872.7-49c-1.6-1.8-3.7-3.4-6-4.5c-2.3-1.1-5-1.7-7.9-1.7c-3,0-5.8,0.5-8.3,1.6c-2.5,1.1-4.6,2.5-6.3,4.4
		c-1.8,1.9-3.2,4.1-4.2,6.6c-0.9,2.2-1.5,4.6-1.7,7.2h40.1c-0.3-2.4-0.8-4.7-1.7-6.9C-4869.7-44.9-4871-47.2-4872.7-49z"/>
	<path d="M-5250.3-71.1c-2.7-3.5-6.4-6.3-11.2-8.3c-4.8-2-11-3-18.6-3h-18.5v78.9h18.5c7.6,0,13.8-1,18.6-3c4.7-2,8.5-4.8,11.2-8.3
		c2.7-3.5,4.6-7.7,5.5-12.4c1-4.8,1.5-10.1,1.5-15.7s-0.5-10.9-1.5-15.7C-5245.8-63.4-5247.6-67.6-5250.3-71.1z"/>
	<path d="M-5153.9-42.4c-1-2.5-2.3-4.7-3.9-6.6c-1.6-1.8-3.7-3.4-6-4.5c-2.3-1.1-5-1.7-7.9-1.7c-3,0-5.8,0.5-8.3,1.6
		c-2.5,1.1-4.6,2.5-6.3,4.4c-1.8,1.9-3.2,4.1-4.2,6.6c-0.9,2.2-1.5,4.6-1.7,7.2h40.1C-5152.5-37.9-5153-40.2-5153.9-42.4z"/>
	<path d="M-4606.7-130.9c-39,0-77.9,0-116.9,0h-115.8c-2.8-0.3-4.3-1.7-5.6-4.7c-14.3-33.3-35.3-62-63.2-85
		c-62.3-51.4-133.3-68.2-211.6-48.1c-73.3,18.9-124.5,65.4-156.6,133.3c-1.3,2.8-2.7,4.2-5.4,4.5h-14.7c-14.5-0.1-28.9,0-43.4,0
		c-1.6,0-3.2-0.2-5.3-0.3c0-2.3,0-4.3,0-6.3c0-50.5,0-100.9,0.1-151.4c0-4.1-1.1-6.6-4.5-9.1c-28.4-20.9-56.7-42.1-85.1-63.1
		c-5.3-4-10.6-7.9-16.1-12.1c36.7-36.3,73.2-72.3,109.7-108.4c0.6,0.8,1.7,2.3,2.7,3.8c24.9,35.6,49.8,71.2,74.5,107
		c2.4,3.4,4.8,4.6,9,4.6c61.8-0.1,123.7-0.1,185.5-0.1c2,0,3.9,0,6.1,0c0-28.4,0-56.3,0-84.5c-2,0-3.7,0-5.3,0
		c-45.8,0-91.7-0.1-137.5,0.1c-5.3,0-8.2-1.4-11-6.1c-28.3-48.2-57-96.3-85.5-144.4c-7.2-12.1-16-22.5-28.1-30
		c-32.8-20.3-72.4-15.5-100.3,12.2c-29.8,29.6-59.4,59.3-89.1,89c-28.5,28.5-57.5,56.6-85.4,85.7c-35.7,37.2-26.7,96.9,17.5,123.4
		c51.6,30.9,102.9,62.3,154.4,93.3c3,1.8,3.9,3.8,3.9,7.2c-0.1,28-0.1,56-0.1,83.9c0,1.7-0.2,3.5-0.2,5.5c-17.1,0-33.9-0.1-50.6,0
		h-17.6c-2.7-0.4-3.9-1.9-5.3-4.6c-7.9-14.4-15-29.5-24.4-42.8c-56-79.4-156.4-115.8-250.3-90.6c-73,19.6-124.2,65.3-156.4,132.9
		c-1.6,3.3-3.2,4.7-6.2,5.1h-112.8c-39.6,0-79.1,0-118.7,0c-2,0-3.9,0-6.1,0c0,59.2,0,117.9,0,177.1c0.6,0,1.1,0,1.6,0h23.3
		c31.5,0,62.9,0,94.4,0h114.1c2.7,0.3,4.3,1.4,5.6,4.7c15.1,37.9,38.6,69.9,70.5,95.3c52,41.4,111.2,57.9,177.2,50
		c42.9-5.1,81.2-21.6,115.2-48c33.3-26,57.4-59,74-97.7c1.2-2.8,2.5-4,5.1-4.3h14.3c13.9,0.1,27.8,0,41.7,0c1.6,0,3.2,0.1,5,0.2
		c0,2.6,0,4.6,0,6.6c0,52.6,0,105.3-0.1,157.9c0,3.8,1.1,6,4.2,8.2c32,23.6,63.9,47.4,95.9,71.2c1.8,1.4,3.6,2.7,5.6,4.3
		c-36.8,36.4-73.2,72.4-109.7,108.4c-0.9-1.3-2.3-3.2-3.6-5.1c-24.6-35.2-49.2-70.4-73.7-105.7c-2.2-3.2-4.5-4.5-8.5-4.5
		c-62.2,0.1-124.3,0.1-186.5,0.1c-1.8,0-3.5,0-5.6,0c0,28.4,0,56.1,0,84.5c2.5,0,4.5,0,6.5,0c45.5,0,91,0.1,136.5-0.1
		c5.3,0,8.2,1.4,11,6.1c29.3,49.8,58.6,99.6,88.4,149.1c25.9,43,87.1,50.8,122.8,15.5c58.6-58,116.9-116.4,175-174.9
		c20.9-21,28.4-46.7,21.6-75.7c-5.5-23.4-20.2-39.9-40.5-52.1c-50.1-30.1-100-60.5-150.1-90.7c-3.2-2-4.6-3.9-4.6-7.8
		c0.2-30,0.1-60,0.1-90c0-1.6,0.1-3.2,0.2-5.4c2.1,0,3.9,0,5.7,0c18.2,0,36.3,0,54.5,0c8.2,0,8.2,0,11.5,7.8
		c1.3,3.1,2.7,6.1,4.1,9.1c23.2,48.3,58.5,85,106.2,109.5c43.1,22.1,88.8,29.4,136.7,23.5c42-5.1,79.6-21.1,113.1-46.7
		c34-26,58.6-59.3,75.4-98.4c1.4-3.2,3-4.5,5.9-4.9h114.6c38.7,0,77.4,0,116.2,0h5.5c0.5,0,1.1,0,1.6,0c0-59.2,0-117.9,0-177.1
		C-4602.8-130.9-4604.7-130.9-4606.7-130.9z M-6029.1-51.1h-15.4l-2.6,18.6h13.3v13.9h-15.2l-4.8,33.3h-14.7l4.6-33.3h-15.4
		l-4.8,33.3h-14.7l4.6-33.3h-14.8v-13.9h16.8l2.6-18.6h-14.8V-65h16.6l4.6-33.3h14.9l-4.8,33.3h15.6l4.6-33.3h14.9l-4.8,33.3h13.5
		V-51.1z M-5950.8-22.8c0,5-0.4,9.9-1.3,14.6c-0.9,4.8-2.7,9.1-5.3,12.9c-2.7,3.8-6.6,6.9-11.7,9.2c-5,2.3-11.8,3.4-20,3.4
		c-6.1,0-11.4-1-15.8-2.9c-4.4-1.9-8-4.6-10.8-7.9c-2.8-3.3-4.9-7.3-6.2-11.9c-1.3-4.5-1.9-9.5-1.9-14.7v-7h21.8v6.9
		c0,6.2,1,11.1,3.1,14.5c2,3.2,5.8,4.8,11.4,4.8c3,0,5.5-0.4,7.4-1.3c1.9-0.9,3.4-2.2,4.5-3.8c1.1-1.7,1.9-3.9,2.3-6.5
		c0.4-2.7,0.6-5.8,0.6-9.2l-0.1-63.9l-19.4-0.1v-14.8h41.3v11.5V-22.8z M-5738.8-200.5c65.6-7.3,123.4,26.3,151.8,69.5
		c-89.9,0-179.1,0-269.7,0C-5827-171.7-5788-195-5738.8-200.5z M-5648.7-81.4v-19.1h20.1v19.1H-5648.7z M-5628.6-69.3v84h-20.1v-84
		H-5628.6z M-5694.7,13.1c-4.5,2.6-9.2,3.9-13.9,3.9c-11,0-19.2-2.8-24.1-8.3c-5-5.5-7.5-13.9-7.5-24.9v-53h20.1V-18
		c0,6.9,1.3,11.8,3.9,14.6c2.5,2.7,6.2,4.1,10.8,4.1c3.6,0,6.7-0.6,9.1-1.7c2.4-1.1,4.3-2.6,5.8-4.4c1.5-1.8,2.6-4.1,3.2-6.7
		c0.7-2.7,1-5.6,1-8.6v-48.6h20.1v84h-19.8V5.3C-5688.2,8.4-5691.1,11-5694.7,13.1z M-5823.4-13.4c1.4,2.9,3.4,5.3,5.9,7.2
		c2.5,1.9,5.5,3.3,8.8,4.1c3.3,0.9,7,1.3,10.9,1.3c4.2,0,7.8-0.5,10.8-1.5c2.9-1,5.3-2.2,7.1-3.7c1.8-1.5,3.1-3.2,3.8-5.1
		c0.8-1.9,1.2-3.9,1.2-5.9c0-4.1-0.9-7-2.7-8.9c-1.8-1.9-3.9-3.3-6-4.1c-4-1.5-8.6-2.9-13.9-4.2c-5.4-1.3-12-3.1-19.8-5.2
		c-4.9-1.3-9.1-3-12.4-5.1c-3.3-2.1-6-4.5-8-7.1c-2-2.6-3.4-5.5-4.2-8.4c-0.8-2.9-1.2-6-1.2-9c0-5.9,1.2-11,3.7-15.3
		c2.4-4.3,5.7-7.9,9.7-10.7c4-2.8,8.6-4.9,13.6-6.3c5-1.3,10.2-2,15.3-2c6,0,11.7,0.8,17,2.3c5.3,1.6,10.1,3.9,14.1,7.1
		c4.1,3.1,7.3,7.1,9.7,11.7c2.4,4.6,3.6,10,3.6,16.1v1h-21.8l-0.1-0.9c-0.5-6.9-2.9-11.9-7-14.7c-4.3-2.9-9.8-4.3-16.4-4.3
		c-2.3,0-4.6,0.2-6.9,0.7c-2.3,0.5-4.5,1.2-6.4,2.3c-1.9,1-3.4,2.4-4.7,4.2c-1.2,1.7-1.8,3.9-1.8,6.6c0,3.8,1.1,6.6,3.4,8.7
		c2.4,2.2,5.5,3.8,9.4,4.9c0.4,0.1,2.1,0.5,5,1.3c2.9,0.8,6.2,1.7,9.8,2.6c3.6,1,7.1,1.9,10.5,2.8c3.4,0.9,5.9,1.6,7.4,2
		c3.8,1.2,7.2,2.9,10,4.9c2.8,2.1,5.2,4.5,7.1,7.1c1.9,2.7,3.3,5.6,4.3,8.6c0.9,3,1.4,6.1,1.4,9.2c0,6.5-1.4,12.1-4,16.8
		c-2.7,4.6-6.2,8.4-10.5,11.4c-4.3,2.9-9.3,5.1-14.8,6.4c-5.5,1.3-11.1,2-16.7,2c-6.5,0-12.7-0.8-18.5-2.4
		c-5.8-1.6-10.9-4.1-15.3-7.5c-4.3-3.4-7.8-7.7-10.4-13c-2.6-5.2-4-11.5-4.1-18.6l0-1h21.8v1C-5825.5-19.9-5824.8-16.3-5823.4-13.4z
		 M-5869.7,9.5c-3.4,2.4-7.2,4.3-11.3,5.5c-4.2,1.2-8.5,1.9-13.1,1.9c-6.6,0-12.5-1.1-17.5-3.3c-5.1-2.2-9.4-5.2-13-9.1
		c-3.5-3.9-6.2-8.6-8-14c-1.8-5.4-2.7-11.3-2.7-17.8c0-5.9,1-11.6,2.8-16.9c1.9-5.3,4.6-10.1,8.1-14.1c3.5-4.1,7.8-7.3,12.8-9.7
		c5-2.4,10.7-3.6,16.9-3.6c6.6,0,12.6,1.4,17.8,4.2c5.2,2.8,9.6,6.4,13.1,11c3.4,4.5,6,9.8,7.5,15.7c1.6,5.9,2,12,1.2,18.2l-0.1,0.9
		h-60.2c0.1,2.7,0.5,5.4,1.3,7.9c0.9,2.8,2.2,5.3,3.9,7.4c1.7,2.1,3.9,3.8,6.5,5c2.6,1.3,5.8,1.9,9.4,1.9c5.1,0,9.2-1.1,12.2-3.2
		c3-2.1,5.3-5.4,6.9-9.7l0.2-0.7h19.1l-0.3,1.2c-1,4.5-2.7,8.7-5.1,12.2C-5863.4,4-5866.4,7.1-5869.7,9.5z M-5716.7,122.8
		c-63.8,1.5-116.7-35.3-140.6-76.3c92.2,0,184.2,0,277.8,0C-5613.2,95.2-5658.4,121.4-5716.7,122.8z M-5543.9,2.2
		c-2.3,3.5-5.3,6.4-9,8.6c-3.6,2.2-7.7,3.7-12.1,4.7c-4.4,1-8.8,1.5-13.1,1.5c-5.2,0-10.2-0.6-14.6-1.8c-4.5-1.2-8.4-3-11.8-5.5
		c-3.3-2.5-6-5.6-7.9-9.2c-1.9-3.7-2.9-8.1-3-13.1l0-1h20l0.1,0.9c0.5,5,2.3,8.4,5.6,10.3c3.3,2,7.4,3,12,3c1.6,0,3.6-0.1,5.7-0.4
		c2.1-0.3,4-0.7,5.9-1.4c1.7-0.7,3.2-1.7,4.3-3c1.1-1.2,1.5-2.9,1.4-4.9c-0.1-2.1-0.8-3.7-2.2-5c-1.5-1.4-3.4-2.5-5.8-3.4
		c-2.4-0.9-5.2-1.6-8.3-2.3c-3.2-0.6-6.5-1.3-9.7-2.1c-3.4-0.7-6.7-1.7-9.9-2.7c-3.2-1.1-6.1-2.6-8.7-4.4c-2.6-1.9-4.7-4.3-6.2-7.2
		c-1.6-2.9-2.3-6.6-2.3-10.9c0-4.6,1.2-8.6,3.4-11.8c2.2-3.1,5.1-5.7,8.6-7.6c3.4-1.9,7.3-3.2,11.4-4c8.8-1.6,16.9-1.5,24.2,0.2
		c4,0.9,7.6,2.4,10.8,4.5c3.2,2.1,5.9,4.8,8.1,8.2c2.1,3.3,3.5,7.4,4,12.1l0.1,1.1h-20.8l-0.2-0.8c-0.8-4-2.6-6.7-5.4-8
		c-3-1.4-6.4-2.1-10.3-2.1c-1.2,0-2.7,0.1-4.4,0.3c-1.7,0.2-3.2,0.6-4.7,1.1c-1.4,0.5-2.6,1.3-3.5,2.3c-0.9,0.9-1.3,2.1-1.3,3.7
		c0,1.9,0.6,3.5,2,4.6c1.4,1.3,3.3,2.4,5.7,3.2c2.4,0.9,5.2,1.6,8.3,2.3c3.1,0.6,6.3,1.3,9.9,2.1c3.3,0.7,6.6,1.7,9.8,2.7
		c3.3,1.1,6.2,2.6,8.8,4.4c2.6,1.9,4.7,4.3,6.3,7.1c1.6,2.9,2.4,6.5,2.4,10.6C-5540.4-5.7-5541.6-1.3-5543.9,2.2z M-5432.4-27.1
		c0,7.4-1.1,13.9-3.4,19.4c-2.3,5.5-5.5,10.2-9.7,13.9c-4.2,3.7-9.2,6.5-15,8.4c-5.8,1.8-12.3,2.7-19.3,2.7c-7,0-13.6-0.9-19.3-2.7
		c-5.8-1.8-10.9-4.7-15-8.4c-4.2-3.7-7.4-8.4-9.7-13.9c-2.3-5.5-3.4-12-3.4-19.4v-73.5h21.8v67c0,3.8,0.2,7.6,0.6,11.5
		c0.4,3.8,1.4,7.2,3.1,10.2c1.6,2.9,4.2,5.4,7.6,7.3c3.4,1.9,8.3,2.9,14.5,2.9c6.2,0,11.1-1,14.5-2.9c3.4-1.9,5.9-4.4,7.6-7.3
		c1.7-3,2.7-6.4,3.1-10.2c0.4-3.9,0.6-7.7,0.6-11.5v-67h21.8V-27.1z M-5340,14.7h-20.1v-52.6c-0.2-6.2-1.5-10.7-3.9-13.4
		c-2.3-2.7-6.1-4-11.1-4c-2.9,0-5.5,0.5-7.8,1.6c-2.3,1-4.3,2.5-5.8,4.3c-1.6,1.9-2.9,4.1-3.8,6.6c-0.9,2.5-1.4,5.2-1.4,8.1v49.4
		h-20.1v-84h19.1v10.5c2.6-3.6,5.8-6.5,9.6-8.7c4.6-2.7,9.7-4,15.3-4c9.2,0,16.6,2.4,21.9,7.2c5.4,4.8,8.1,12.1,8.1,21.7V14.7z
		 M-5087.3-199.7c68.3-10,129.3,23.9,158.9,68.7c-89.9,0-179.2,0-268.4,0C-5190.8-155.8-5129.8-193.5-5087.3-199.7z M-4936.4-42.9
		c0,7.9-1,15.4-3,22.3c-2,7-5.1,13.1-9.1,18.4c-4.1,5.2-9.5,9.4-15.9,12.4c-6.4,3-14.2,4.5-23,4.5h-48v-115.3h48
		c8.8,0,16.5,1.5,23,4.5c6.5,3,11.8,7.2,15.9,12.4c4.1,5.2,7.2,11.4,9.1,18.4C-4937.4-58.3-4936.4-50.8-4936.4-42.9z M-5072-14.1
		c-1.5-1.4-3.4-2.5-5.8-3.4c-2.4-0.9-5.2-1.6-8.3-2.3c-3.2-0.6-6.5-1.3-9.7-2.1c-3.4-0.7-6.7-1.7-9.9-2.7c-3.2-1.1-6.1-2.6-8.7-4.4
		c-2.6-1.9-4.7-4.3-6.2-7.2c-1.6-2.9-2.3-6.6-2.3-10.9c0-4.6,1.2-8.6,3.4-11.8c2.2-3.1,5.1-5.7,8.6-7.6c3.4-1.9,7.3-3.2,11.4-4
		c8.8-1.6,16.9-1.5,24.2,0.2c4,0.9,7.6,2.4,10.8,4.5c3.2,2.1,5.9,4.8,8.1,8.2c2.1,3.3,3.5,7.4,4,12.1l0.1,1.1h-20.8l-0.2-0.8
		c-0.8-4-2.6-6.7-5.4-8c-3-1.4-6.4-2.1-10.3-2.1c-1.2,0-2.7,0.1-4.4,0.3c-1.7,0.2-3.2,0.6-4.7,1.1c-1.4,0.5-2.6,1.3-3.5,2.3
		c-0.9,0.9-1.3,2.1-1.3,3.7c0,1.9,0.6,3.5,2,4.6c1.4,1.3,3.3,2.4,5.7,3.2c2.4,0.9,5.2,1.6,8.3,2.3c3.1,0.6,6.3,1.3,9.9,2.1
		c3.3,0.7,6.6,1.7,9.8,2.7c3.3,1.1,6.2,2.6,8.8,4.4c2.6,1.9,4.7,4.3,6.3,7.1c1.6,2.9,2.4,6.5,2.4,10.6c0,5-1.2,9.4-3.5,12.9
		c-2.3,3.5-5.3,6.4-9,8.6c-3.6,2.2-7.7,3.7-12.1,4.7c-4.4,1-8.8,1.5-13.1,1.5c-5.2,0-10.2-0.6-14.6-1.8c-4.5-1.2-8.4-3-11.8-5.5
		c-3.3-2.5-6-5.6-7.9-9.2c-1.9-3.7-2.9-8.1-3-13.1l0-1h20l0.1,0.9c0.5,5,2.3,8.4,5.6,10.3c3.3,2,7.4,3,12,3c1.6,0,3.6-0.1,5.7-0.4
		c2.1-0.3,4-0.7,5.9-1.4c1.7-0.7,3.2-1.7,4.3-3c1.1-1.2,1.5-2.9,1.4-4.9C-5069.9-11.2-5070.6-12.8-5072-14.1z M-5224.5-20.6
		c-2,7-5.1,13.1-9.1,18.4c-4.1,5.2-9.5,9.4-15.9,12.4c-6.4,3-14.2,4.5-23,4.5h-48v-115.3h48c8.8,0,16.5,1.5,23,4.5
		c6.5,3,11.8,7.2,15.9,12.4c4.1,5.2,7.2,11.4,9.1,18.4c2,6.9,3,14.4,3,22.3C-5221.5-35.1-5222.5-27.5-5224.5-20.6z M-5201.7,4.5
		c-3.5-3.9-6.2-8.6-8-14c-1.8-5.4-2.7-11.3-2.7-17.8c0-5.9,1-11.6,2.8-16.9c1.9-5.3,4.6-10.1,8.1-14.1c3.5-4.1,7.8-7.3,12.8-9.7
		c5-2.4,10.7-3.6,16.9-3.6c6.6,0,12.6,1.4,17.8,4.2c5.2,2.8,9.6,6.4,13.1,11c3.4,4.5,6,9.8,7.5,15.7c1.6,5.9,2,12,1.2,18.2l-0.1,0.9
		h-60.2c0.1,2.7,0.5,5.4,1.3,7.9c0.9,2.8,2.2,5.3,3.9,7.4c1.7,2.1,3.9,3.8,6.5,5c2.6,1.3,5.8,1.9,9.4,1.9c5.1,0,9.2-1.1,12.2-3.2
		c3-2.1,5.3-5.4,6.9-9.7l0.2-0.7h19.1l-0.3,1.2c-1,4.5-2.7,8.7-5.1,12.2c-2.4,3.6-5.3,6.6-8.7,9.1c-3.4,2.4-7.2,4.3-11.3,5.5
		c-4.2,1.2-8.5,1.9-13.1,1.9c-6.6,0-12.5-1.1-17.5-3.3C-5193.9,11.5-5198.2,8.4-5201.7,4.5z M-5064.4,122.6
		c-57.6-1.2-102.1-28-135.3-76.1c93.2,0,185.4,0,278.8,0C-4956.3,97.1-5003.5,124-5064.4,122.6z M-4846.9-22.5l-0.1,0.9h-60.2
		c0.1,2.7,0.5,5.4,1.3,7.9c0.9,2.8,2.2,5.3,3.9,7.4c1.7,2.1,3.9,3.8,6.5,5c2.6,1.3,5.8,1.9,9.4,1.9c5.1,0,9.2-1.1,12.2-3.2
		c3-2.1,5.3-5.4,6.9-9.7l0.2-0.7h19.1l-0.3,1.2c-1,4.5-2.7,8.7-5.1,12.2c-2.4,3.6-5.3,6.6-8.7,9.1c-3.4,2.4-7.2,4.3-11.3,5.5
		c-4.2,1.2-8.5,1.9-13.1,1.9c-6.6,0-12.5-1.1-17.5-3.3c-5.1-2.2-9.4-5.2-13-9.1c-3.5-3.9-6.2-8.6-8-14c-1.8-5.4-2.7-11.3-2.7-17.8
		c0-5.9,1-11.6,2.8-16.9c1.9-5.3,4.6-10.1,8.1-14.1c3.5-4.1,7.8-7.3,12.8-9.7c5-2.4,10.7-3.6,16.9-3.6c6.6,0,12.6,1.4,17.8,4.2
		c5.2,2.8,9.6,6.4,13.1,11c3.4,4.5,6,9.8,7.5,15.7C-4846.6-34.9-4846.2-28.7-4846.9-22.5z M-4761.1,14.7h-19.8V5.3
		c-2.2,3.1-5.1,5.7-8.7,7.8c-4.5,2.6-9.2,3.9-13.9,3.9c-11,0-19.2-2.8-24.1-8.3c-5-5.5-7.5-13.9-7.5-24.9v-53h20.1V-18
		c0,6.9,1.3,11.8,3.9,14.6c2.5,2.7,6.2,4.1,10.8,4.1c3.6,0,6.7-0.6,9.1-1.7c2.4-1.1,4.3-2.6,5.8-4.4c1.5-1.8,2.6-4.1,3.2-6.7
		c0.7-2.7,1-5.6,1-8.6v-48.6h20.1V14.7z M-4690.3,14.7l-20.2-29.5l-19.6,29.5h-23.7l31.7-44.1l-29.1-39.9h24.4l16.6,24.5l17.4-24.5
		h23.4l-28.7,38.9l32.1,45.1H-4690.3z"/>
</g>
<g>
	<path d="M305.7,78.8c14-0.3,25.3-11.8,25-25.4C330.4,39,319,28,304.7,28.2c-13.6,0.3-24.8,11.9-24.6,25.4
		C280.4,67.9,291.8,79.1,305.7,78.8z"/>
	<path d="M194.3,421.1c-14.3-0.1-25.5,11.3-25.7,24.4c-0.2,14.7,10.9,26.2,25.2,26.2c13.7,0,25.3-11.3,25.4-24.9
		C219.3,432.8,208,421.2,194.3,421.1z"/>
	<path d="M376.8,240c-0.8-1-1.9-1.9-3.3-2.5c-1.4-0.6-3.3-0.9-5.5-0.9h-5.5v23.6h5.5c2.3,0,4.1-0.3,5.5-0.9c1.4-0.6,2.5-1.4,3.3-2.5
		c0.8-1,1.4-2.3,1.7-3.7c0.3-1.4,0.4-3,0.4-4.7c0-1.7-0.1-3.3-0.4-4.7C378.1,242.3,377.6,241.1,376.8,240z"/>
	<polygon points="44.5,251.6 49.2,251.6 49.9,246 45.3,246 	"/>
	<path d="M104.4,248.6c-0.3-0.8-0.7-1.4-1.2-2c-0.5-0.6-1.1-1-1.8-1.4c-0.7-0.3-1.5-0.5-2.4-0.5c-0.9,0-1.7,0.2-2.5,0.5
		c-0.7,0.3-1.4,0.8-1.9,1.3c-0.5,0.6-1,1.2-1.3,2c-0.3,0.7-0.4,1.4-0.5,2.1h12C104.9,250,104.7,249.3,104.4,248.6z"/>
	<path d="M404.4,246.6c-0.5-0.6-1.1-1-1.8-1.4c-0.7-0.3-1.5-0.5-2.4-0.5c-0.9,0-1.7,0.2-2.5,0.5c-0.7,0.3-1.4,0.8-1.9,1.3
		c-0.5,0.6-1,1.2-1.3,2c-0.3,0.7-0.4,1.4-0.5,2.1h12c-0.1-0.7-0.2-1.4-0.5-2.1C405.3,247.8,404.9,247.2,404.4,246.6z"/>
	<path d="M291.6,240c-0.8-1-1.9-1.9-3.3-2.5c-1.4-0.6-3.3-0.9-5.5-0.9h-5.5v23.6h5.5c2.3,0,4.1-0.3,5.5-0.9c1.4-0.6,2.5-1.4,3.3-2.5
		c0.8-1,1.4-2.3,1.7-3.7c0.3-1.4,0.4-3,0.4-4.7c0-1.7-0.1-3.3-0.4-4.7C293,242.3,292.4,241.1,291.6,240z"/>
	<path d="M320.4,248.6c-0.3-0.8-0.7-1.4-1.2-2c-0.5-0.6-1.1-1-1.8-1.4c-0.7-0.3-1.5-0.5-2.4-0.5c-0.9,0-1.7,0.2-2.5,0.5
		c-0.7,0.3-1.4,0.8-1.9,1.3c-0.5,0.6-1,1.2-1.3,2c-0.3,0.7-0.4,1.4-0.5,2.1h12C320.8,250,320.7,249.3,320.4,248.6z"/>
	<path d="M483.9,222.2c-11.6,0-23.3,0-34.9,0h-34.6c-0.8-0.1-1.3-0.5-1.7-1.4c-4.3-10-10.5-18.5-18.9-25.4
		C375.2,180,354,175,330.6,181c-21.9,5.6-37.2,19.5-46.8,39.8c-0.4,0.8-0.8,1.2-1.6,1.3h-4.4c-4.3,0-8.6,0-13,0
		c-0.5,0-1-0.1-1.6-0.1c0-0.7,0-1.3,0-1.9c0-15.1,0-30.2,0-45.2c0-1.2-0.3-2-1.3-2.7c-8.5-6.3-17-12.6-25.4-18.9
		c-1.6-1.2-3.2-2.4-4.8-3.6c11-10.8,21.9-21.6,32.8-32.4c0.2,0.2,0.5,0.7,0.8,1.1c7.4,10.6,14.9,21.3,22.3,32c0.7,1,1.4,1.4,2.7,1.4
		c18.5,0,37,0,55.4,0c0.6,0,1.2,0,1.8,0c0-8.5,0-16.8,0-25.3c-0.6,0-1.1,0-1.6,0c-13.7,0-27.4,0-41.1,0c-1.6,0-2.5-0.4-3.3-1.8
		c-8.5-14.4-17-28.8-25.5-43.1c-2.1-3.6-4.8-6.7-8.4-9c-9.8-6.1-21.6-4.6-30,3.6c-8.9,8.8-17.8,17.7-26.6,26.6
		c-8.5,8.5-17.2,16.9-25.5,25.6c-10.7,11.1-8,28.9,5.2,36.9c15.4,9.2,30.7,18.6,46.1,27.9c0.9,0.5,1.2,1.1,1.2,2.1
		c0,8.4,0,16.7,0,25.1c0,0.5,0,1-0.1,1.6c-5.1,0-10.1,0-15.1,0h-5.3c-0.8-0.1-1.2-0.6-1.6-1.4c-2.3-4.3-4.5-8.8-7.3-12.8
		c-16.7-23.7-46.7-34.6-74.8-27.1c-21.8,5.8-37.1,19.5-46.7,39.7c-0.5,1-1,1.4-1.9,1.5H51.5c-11.8,0-23.6,0-35.5,0
		c-0.6,0-1.2,0-1.8,0c0,17.7,0,35.2,0,52.9c0.2,0,0.3,0,0.5,0h7c9.4,0,18.8,0,28.2,0H84c0.8,0.1,1.3,0.4,1.7,1.4
		c4.5,11.3,11.5,20.9,21.1,28.5c15.5,12.4,33.2,17.3,53,15c12.8-1.5,24.3-6.4,34.4-14.3c10-7.8,17.2-17.6,22.1-29.2
		c0.4-0.8,0.8-1.2,1.5-1.3h4.3c4.2,0,8.3,0,12.5,0c0.5,0,0.9,0,1.5,0.1c0,0.8,0,1.4,0,2c0,15.7,0,31.5,0,47.2c0,1.1,0.3,1.8,1.2,2.5
		c9.6,7.1,19.1,14.2,28.7,21.3c0.5,0.4,1.1,0.8,1.7,1.3c-11,10.9-21.9,21.6-32.8,32.4c-0.3-0.4-0.7-1-1.1-1.5
		c-7.3-10.5-14.7-21-22-31.6c-0.7-1-1.3-1.4-2.5-1.4c-18.6,0-37.1,0-55.7,0c-0.5,0-1.1,0-1.7,0c0,8.5,0,16.8,0,25.3
		c0.8,0,1.3,0,1.9,0c13.6,0,27.2,0,40.8,0c1.6,0,2.5,0.4,3.3,1.8c8.7,14.9,17.5,29.8,26.4,44.5c7.8,12.9,26,15.2,36.7,4.6
		c17.5-17.3,34.9-34.8,52.3-52.3c6.2-6.3,8.5-13.9,6.4-22.6c-1.6-7-6-11.9-12.1-15.6c-15-9-29.9-18.1-44.8-27.1
		c-1-0.6-1.4-1.2-1.4-2.3c0.1-9,0-17.9,0-26.9c0-0.5,0-1,0.1-1.6c0.6,0,1.2,0,1.7,0c5.4,0,10.9,0,16.3,0c2.5,0,2.5,0,3.4,2.3
		c0.4,0.9,0.8,1.8,1.2,2.7c6.9,14.4,17.5,25.4,31.7,32.7c12.9,6.6,26.5,8.8,40.9,7c12.6-1.5,23.8-6.3,33.8-13.9
		c10.1-7.8,17.5-17.7,22.5-29.4c0.4-0.9,0.9-1.4,1.8-1.5h34.2c11.6,0,23.1,0,34.7,0h1.6c0.2,0,0.3,0,0.5,0c0-17.7,0-35.2,0-52.9
		C485.1,222.2,484.5,222.2,483.9,222.2z M58.9,246h-4.6l-0.8,5.6h4v4.2H53l-1.4,10h-4.4l1.4-10h-4.6l-1.4,10h-4.4l1.4-10h-4.4v-4.2
		h5l0.8-5.6h-4.4v-4.2h5l1.4-10h4.4l-1.4,10h4.7l1.4-10h4.4l-1.4,10h4V246z M82.3,254.5c0,1.5-0.1,3-0.4,4.4
		c-0.3,1.4-0.8,2.7-1.6,3.9c-0.8,1.1-2,2.1-3.5,2.8c-1.5,0.7-3.5,1-6,1c-1.8,0-3.4-0.3-4.7-0.9c-1.3-0.6-2.4-1.4-3.2-2.4
		c-0.8-1-1.5-2.2-1.9-3.5c-0.4-1.3-0.6-2.8-0.6-4.4v-2.1H67v2.1c0,1.9,0.3,3.3,0.9,4.3c0.6,1,1.7,1.4,3.4,1.4c0.9,0,1.6-0.1,2.2-0.4
		c0.6-0.3,1-0.6,1.3-1.1c0.3-0.5,0.6-1.2,0.7-1.9c0.1-0.8,0.2-1.7,0.2-2.8l0-19.1l-5.8,0v-4.4h12.4v3.4V254.5z M145.6,201.4
		c19.6-2.2,36.9,7.8,45.3,20.8c-26.9,0-53.5,0-80.6,0C119.3,210,130.9,203,145.6,201.4z M172.6,236.9v-5.7h6v5.7H172.6z
		 M178.6,240.6v25.1h-6v-25.1H178.6z M158.8,265.2c-1.4,0.8-2.7,1.2-4.2,1.2c-3.3,0-5.7-0.8-7.2-2.5c-1.5-1.6-2.2-4.1-2.2-7.4v-15.8
		h6v15.3c0,2.1,0.4,3.5,1.2,4.3c0.8,0.8,1.8,1.2,3.2,1.2c1.1,0,2-0.2,2.7-0.5c0.7-0.3,1.3-0.8,1.7-1.3c0.4-0.5,0.8-1.2,1-2
		c0.2-0.8,0.3-1.7,0.3-2.6v-14.5h6v25.1h-5.9v-2.8C160.8,263.8,159.9,264.6,158.8,265.2z M120.4,257.3c0.4,0.9,1,1.6,1.8,2.1
		c0.8,0.6,1.6,1,2.6,1.2c1,0.3,2.1,0.4,3.3,0.4c1.3,0,2.3-0.1,3.2-0.4c0.9-0.3,1.6-0.7,2.1-1.1c0.5-0.4,0.9-1,1.1-1.5
		c0.2-0.6,0.4-1.2,0.4-1.8c0-1.2-0.3-2.1-0.8-2.7c-0.5-0.6-1.2-1-1.8-1.2c-1.2-0.4-2.6-0.9-4.2-1.2c-1.6-0.4-3.6-0.9-5.9-1.5
		c-1.5-0.4-2.7-0.9-3.7-1.5c-1-0.6-1.8-1.4-2.4-2.1c-0.6-0.8-1-1.6-1.3-2.5c-0.2-0.9-0.4-1.8-0.4-2.7c0-1.8,0.4-3.3,1.1-4.6
		c0.7-1.3,1.7-2.4,2.9-3.2c1.2-0.8,2.6-1.5,4.1-1.9c1.5-0.4,3-0.6,4.6-0.6c1.8,0,3.5,0.2,5.1,0.7c1.6,0.5,3,1.2,4.2,2.1
		c1.2,0.9,2.2,2.1,2.9,3.5c0.7,1.4,1.1,3,1.1,4.8v0.3h-6.5l0-0.3c-0.2-2.1-0.9-3.6-2.1-4.4c-1.3-0.9-2.9-1.3-4.9-1.3
		c-0.7,0-1.4,0.1-2.1,0.2c-0.7,0.1-1.3,0.4-1.9,0.7c-0.6,0.3-1,0.7-1.4,1.3c-0.4,0.5-0.5,1.2-0.5,2c0,1.1,0.3,2,1,2.6
		c0.7,0.6,1.6,1.1,2.8,1.5c0.1,0,0.6,0.2,1.5,0.4c0.9,0.2,1.8,0.5,2.9,0.8c1.1,0.3,2.1,0.6,3.2,0.8c1,0.3,1.8,0.5,2.2,0.6
		c1.1,0.4,2.1,0.9,3,1.5c0.8,0.6,1.6,1.3,2.1,2.1c0.6,0.8,1,1.7,1.3,2.6c0.3,0.9,0.4,1.8,0.4,2.7c0,1.9-0.4,3.6-1.2,5
		c-0.8,1.4-1.9,2.5-3.1,3.4c-1.3,0.9-2.8,1.5-4.4,1.9c-1.6,0.4-3.3,0.6-5,0.6c-1.9,0-3.8-0.2-5.5-0.7c-1.7-0.5-3.3-1.2-4.6-2.2
		c-1.3-1-2.3-2.3-3.1-3.9c-0.8-1.6-1.2-3.4-1.2-5.6l0-0.3h6.5v0.3C119.7,255.3,119.9,256.4,120.4,257.3z M106.5,264.1
		c-1,0.7-2.1,1.3-3.4,1.7c-1.2,0.4-2.6,0.6-3.9,0.6c-2,0-3.7-0.3-5.2-1c-1.5-0.6-2.8-1.6-3.9-2.7c-1.1-1.2-1.9-2.6-2.4-4.2
		c-0.5-1.6-0.8-3.4-0.8-5.3c0-1.8,0.3-3.5,0.8-5.1c0.6-1.6,1.4-3,2.4-4.2c1-1.2,2.3-2.2,3.8-2.9c1.5-0.7,3.2-1.1,5.1-1.1
		c2,0,3.8,0.4,5.3,1.2c1.6,0.8,2.9,1.9,3.9,3.3c1,1.4,1.8,2.9,2.3,4.7c0.5,1.8,0.6,3.6,0.4,5.4l0,0.3H93c0,0.8,0.2,1.6,0.4,2.4
		c0.3,0.8,0.6,1.6,1.2,2.2c0.5,0.6,1.2,1.1,1.9,1.5c0.8,0.4,1.7,0.6,2.8,0.6c1.5,0,2.7-0.3,3.6-1c0.9-0.6,1.6-1.6,2-2.9l0.1-0.2h5.7
		l-0.1,0.4c-0.3,1.4-0.8,2.6-1.5,3.7C108.4,262.5,107.5,263.4,106.5,264.1z M152.2,298c-19.1,0.5-34.9-10.5-42-22.8
		c27.5,0,55,0,83,0C183.2,289.7,169.7,297.6,152.2,298z M203.9,261.9c-0.7,1-1.6,1.9-2.7,2.6c-1.1,0.6-2.3,1.1-3.6,1.4
		c-1.3,0.3-2.6,0.4-3.9,0.4c-1.6,0-3-0.2-4.4-0.5c-1.3-0.4-2.5-0.9-3.5-1.6c-1-0.7-1.8-1.7-2.4-2.8c-0.6-1.1-0.9-2.4-0.9-3.9l0-0.3
		h6l0,0.3c0.1,1.5,0.7,2.5,1.7,3.1c1,0.6,2.2,0.9,3.6,0.9c0.5,0,1.1,0,1.7-0.1c0.6-0.1,1.2-0.2,1.8-0.4c0.5-0.2,0.9-0.5,1.3-0.9
		c0.3-0.4,0.5-0.9,0.4-1.5c0-0.6-0.2-1.1-0.7-1.5c-0.4-0.4-1-0.7-1.7-1c-0.7-0.3-1.6-0.5-2.5-0.7c-1-0.2-1.9-0.4-2.9-0.6
		c-1-0.2-2-0.5-2.9-0.8c-1-0.3-1.8-0.8-2.6-1.3c-0.8-0.6-1.4-1.3-1.9-2.2c-0.5-0.9-0.7-2-0.7-3.2c0-1.4,0.3-2.6,1-3.5
		c0.7-0.9,1.5-1.7,2.6-2.3c1-0.6,2.2-1,3.4-1.2c2.6-0.5,5-0.4,7.2,0.1c1.2,0.3,2.3,0.7,3.2,1.3c1,0.6,1.8,1.4,2.4,2.4
		c0.6,1,1,2.2,1.2,3.6l0,0.3h-6.2l0-0.2c-0.2-1.2-0.8-2-1.6-2.4c-0.9-0.4-1.9-0.6-3.1-0.6c-0.4,0-0.8,0-1.3,0.1
		c-0.5,0.1-1,0.2-1.4,0.3c-0.4,0.2-0.8,0.4-1.1,0.7c-0.3,0.3-0.4,0.6-0.4,1.1c0,0.6,0.2,1,0.6,1.4c0.4,0.4,1,0.7,1.7,1
		c0.7,0.3,1.6,0.5,2.5,0.7c0.9,0.2,1.9,0.4,2.9,0.6c1,0.2,2,0.5,2.9,0.8c1,0.3,1.9,0.8,2.6,1.3c0.8,0.6,1.4,1.3,1.9,2.1
		c0.5,0.9,0.7,1.9,0.7,3.2C204.9,259.6,204.6,260.9,203.9,261.9z M237.2,253.2c0,2.2-0.3,4.2-1,5.8c-0.7,1.6-1.7,3-2.9,4.2
		c-1.2,1.1-2.8,2-4.5,2.5c-1.7,0.5-3.7,0.8-5.8,0.8c-2.1,0-4.1-0.3-5.8-0.8c-1.7-0.5-3.3-1.4-4.5-2.5c-1.2-1.1-2.2-2.5-2.9-4.2
		c-0.7-1.6-1-3.6-1-5.8v-22h6.5v20c0,1.1,0.1,2.3,0.2,3.4c0.1,1.1,0.4,2.1,0.9,3c0.5,0.9,1.3,1.6,2.3,2.2c1,0.6,2.5,0.9,4.3,0.9
		c1.9,0,3.3-0.3,4.3-0.9c1-0.6,1.8-1.3,2.3-2.2c0.5-0.9,0.8-1.9,0.9-3c0.1-1.2,0.2-2.3,0.2-3.4v-20h6.5V253.2z M264.8,265.7h-6V250
		c-0.1-1.8-0.5-3.2-1.2-4c-0.7-0.8-1.8-1.2-3.3-1.2c-0.9,0-1.7,0.2-2.3,0.5c-0.7,0.3-1.3,0.7-1.7,1.3c-0.5,0.6-0.9,1.2-1.1,2
		c-0.3,0.8-0.4,1.6-0.4,2.4v14.8h-6v-25.1h5.7v3.1c0.8-1.1,1.7-1.9,2.9-2.6c1.4-0.8,2.9-1.2,4.6-1.2c2.7,0,5,0.7,6.6,2.2
		c1.6,1.4,2.4,3.6,2.4,6.5V265.7z M340.3,201.6c20.4-3,38.6,7.1,47.5,20.5c-26.9,0-53.5,0-80.2,0
		C309.4,214.7,327.6,203.4,340.3,201.6z M385.4,248.4c0,2.4-0.3,4.6-0.9,6.7c-0.6,2.1-1.5,3.9-2.7,5.5c-1.2,1.6-2.8,2.8-4.8,3.7
		c-1.9,0.9-4.2,1.4-6.9,1.4h-14.3v-34.4h14.3c2.6,0,4.9,0.5,6.9,1.4c1.9,0.9,3.5,2.2,4.8,3.7c1.2,1.6,2.1,3.4,2.7,5.5
		C385.1,243.8,385.4,246.1,385.4,248.4z M344.9,257.1c-0.4-0.4-1-0.7-1.7-1c-0.7-0.3-1.6-0.5-2.5-0.7c-1-0.2-1.9-0.4-2.9-0.6
		c-1-0.2-2-0.5-2.9-0.8c-1-0.3-1.8-0.8-2.6-1.3c-0.8-0.6-1.4-1.3-1.9-2.2c-0.5-0.9-0.7-2-0.7-3.2c0-1.4,0.3-2.6,1-3.5
		c0.7-0.9,1.5-1.7,2.6-2.3c1-0.6,2.2-1,3.4-1.2c2.6-0.5,5-0.4,7.2,0.1c1.2,0.3,2.3,0.7,3.2,1.3c1,0.6,1.8,1.4,2.4,2.4
		c0.6,1,1,2.2,1.2,3.6l0,0.3h-6.2l0-0.2c-0.2-1.2-0.8-2-1.6-2.4c-0.9-0.4-1.9-0.6-3.1-0.6c-0.4,0-0.8,0-1.3,0.1
		c-0.5,0.1-1,0.2-1.4,0.3c-0.4,0.2-0.8,0.4-1.1,0.7c-0.3,0.3-0.4,0.6-0.4,1.1c0,0.6,0.2,1,0.6,1.4c0.4,0.4,1,0.7,1.7,1
		c0.7,0.3,1.6,0.5,2.5,0.7c0.9,0.2,1.9,0.4,2.9,0.6c1,0.2,2,0.5,2.9,0.8c1,0.3,1.9,0.8,2.6,1.3c0.8,0.6,1.4,1.3,1.9,2.1
		c0.5,0.9,0.7,1.9,0.7,3.2c0,1.5-0.4,2.8-1,3.9c-0.7,1-1.6,1.9-2.7,2.6c-1.1,0.6-2.3,1.1-3.6,1.4c-1.3,0.3-2.6,0.4-3.9,0.4
		c-1.6,0-3-0.2-4.4-0.5c-1.3-0.4-2.5-0.9-3.5-1.6c-1-0.7-1.8-1.7-2.4-2.8c-0.6-1.1-0.9-2.4-0.9-3.9l0-0.3h6l0,0.3
		c0.1,1.5,0.7,2.5,1.7,3.1c1,0.6,2.2,0.9,3.6,0.9c0.5,0,1.1,0,1.7-0.1c0.6-0.1,1.2-0.2,1.8-0.4c0.5-0.2,0.9-0.5,1.3-0.9
		c0.3-0.4,0.5-0.9,0.4-1.5C345.5,257.9,345.3,257.4,344.9,257.1z M299.3,255.1c-0.6,2.1-1.5,3.9-2.7,5.5c-1.2,1.6-2.8,2.8-4.8,3.7
		c-1.9,0.9-4.2,1.4-6.9,1.4h-14.3v-34.4H285c2.6,0,4.9,0.5,6.9,1.4c1.9,0.9,3.5,2.2,4.8,3.7c1.2,1.6,2.1,3.4,2.7,5.5
		c0.6,2.1,0.9,4.3,0.9,6.7C300.2,250.8,299.9,253,299.3,255.1z M306.1,262.6c-1.1-1.2-1.9-2.6-2.4-4.2c-0.5-1.6-0.8-3.4-0.8-5.3
		c0-1.8,0.3-3.5,0.8-5.1c0.6-1.6,1.4-3,2.4-4.2c1-1.2,2.3-2.2,3.8-2.9c1.5-0.7,3.2-1.1,5.1-1.1c2,0,3.8,0.4,5.3,1.2
		c1.6,0.8,2.9,1.9,3.9,3.3c1,1.4,1.8,2.9,2.3,4.7c0.5,1.8,0.6,3.6,0.4,5.4l0,0.3h-18c0,0.8,0.2,1.6,0.4,2.4c0.3,0.8,0.6,1.6,1.2,2.2
		c0.5,0.6,1.2,1.1,1.9,1.5c0.8,0.4,1.7,0.6,2.8,0.6c1.5,0,2.7-0.3,3.6-1c0.9-0.6,1.6-1.6,2-2.9l0.1-0.2h5.7l-0.1,0.4
		c-0.3,1.4-0.8,2.6-1.5,3.7c-0.7,1.1-1.6,2-2.6,2.7c-1,0.7-2.1,1.3-3.4,1.7c-1.2,0.4-2.6,0.6-3.9,0.6c-2,0-3.7-0.3-5.2-1
		C308.5,264.7,307.2,263.8,306.1,262.6z M347.2,297.9c-17.2-0.4-30.5-8.4-40.4-22.7c27.9,0,55.4,0,83.3,0
		C379.5,290.3,365.4,298.3,347.2,297.9z M412.1,254.6l0,0.3h-18c0,0.8,0.2,1.6,0.4,2.4c0.3,0.8,0.6,1.6,1.2,2.2
		c0.5,0.6,1.2,1.1,1.9,1.5c0.8,0.4,1.7,0.6,2.8,0.6c1.5,0,2.7-0.3,3.6-1c0.9-0.6,1.6-1.6,2-2.9l0.1-0.2h5.7l-0.1,0.4
		c-0.3,1.4-0.8,2.6-1.5,3.7c-0.7,1.1-1.6,2-2.6,2.7c-1,0.7-2.1,1.3-3.4,1.7c-1.2,0.4-2.6,0.6-3.9,0.6c-2,0-3.7-0.3-5.2-1
		c-1.5-0.6-2.8-1.6-3.9-2.7c-1.1-1.2-1.9-2.6-2.4-4.2c-0.5-1.6-0.8-3.4-0.8-5.3c0-1.8,0.3-3.5,0.8-5.1c0.6-1.6,1.4-3,2.4-4.2
		c1-1.2,2.3-2.2,3.8-2.9c1.5-0.7,3.2-1.1,5.1-1.1c2,0,3.8,0.4,5.3,1.2c1.6,0.8,2.9,1.9,3.9,3.3c1,1.4,1.8,2.9,2.3,4.7
		C412.2,250.9,412.4,252.7,412.1,254.6z M437.8,265.7h-5.9v-2.8c-0.7,0.9-1.5,1.7-2.6,2.3c-1.4,0.8-2.7,1.2-4.2,1.2
		c-3.3,0-5.7-0.8-7.2-2.5c-1.5-1.6-2.2-4.1-2.2-7.4v-15.8h6v15.3c0,2.1,0.4,3.5,1.2,4.3c0.8,0.8,1.8,1.2,3.2,1.2
		c1.1,0,2-0.2,2.7-0.5c0.7-0.3,1.3-0.8,1.7-1.3c0.4-0.5,0.8-1.2,1-2c0.2-0.8,0.3-1.7,0.3-2.6v-14.5h6V265.7z M458.9,265.7l-6-8.8
		l-5.9,8.8h-7.1l9.5-13.2l-8.7-11.9h7.3l5,7.3l5.2-7.3h7l-8.6,11.6l9.6,13.5H458.9z"/>
</g>
</svg>
