<?xml version="1.0" encoding="UTF-8" standalone="no"?>
<!-- Created with Inkscape (http://www.inkscape.org/) -->

<svg
   xmlns:dc="http://purl.org/dc/elements/1.1/"
   xmlns:cc="http://creativecommons.org/ns#"
   xmlns:rdf="http://www.w3.org/1999/02/22-rdf-syntax-ns#"
   xmlns:svg="http://www.w3.org/2000/svg"
   xmlns="http://www.w3.org/2000/svg"
   xmlns:sodipodi="http://sodipodi.sourceforge.net/DTD/sodipodi-0.dtd"
   xmlns:inkscape="http://www.inkscape.org/namespaces/inkscape"
   version="1.1"
   id="svg1427"
   width="655.35999"
   height="510.72"
   viewBox="0 0 655.35999 510.72"
   sodipodi:docname="velo_jsudd_blackrectsvg.svg"
   inkscape:version="0.92.4 5da689c313, 2019-01-14">
  <metadata
     id="metadata1433">
    <rdf:RDF>
      <cc:Work
         rdf:about="">
        <dc:format>image/svg+xml</dc:format>
        <dc:type
           rdf:resource="http://purl.org/dc/dcmitype/StillImage" />
        <dc:title></dc:title>
      </cc:Work>
    </rdf:RDF>
  </metadata>
  <defs
     id="defs1431" />
  <sodipodi:namedview
     pagecolor="#ffffff"
     bordercolor="#666666"
     borderopacity="1"
     objecttolerance="10"
     gridtolerance="10"
     guidetolerance="10"
     inkscape:pageopacity="0"
     inkscape:pageshadow="2"
     inkscape:window-width="1640"
     inkscape:window-height="949"
     id="namedview1429"
     showgrid="false"
     inkscape:zoom="0.72153039"
     inkscape:cx="240.13222"
     inkscape:cy="210.76753"
     inkscape:window-x="1386"
     inkscape:window-y="54"
     inkscape:window-maximized="1"
     inkscape:current-layer="svg1427" />
  <path
     style="fill:#000000;stroke-width:0.31999999"
     d="m 130.14607,487.25278 c -9.42663,-1.00275 -18.24263,-7.59347 -21.85676,-16.33987 -1.55218,-3.75635 -2.01421,-6.18326 -2.03568,-10.69296 -0.016,-3.37024 0.11371,-4.62515 0.68344,-6.61014 2.8819,-10.04061 9.90764,-16.86484 20.2416,-19.66103 3.06076,-0.82819 9.25693,-0.76006 12.64,0.13898 9.15203,2.43209 16.50072,9.47997 19.2398,18.45219 0.79876,2.61645 0.88037,3.34851 0.8919,8 0.0118,4.78022 -0.0473,5.30051 -0.89073,7.84 -4.15847,12.52045 -15.99566,20.24698 -28.91357,18.87283 z m 52.2326,-43.97401 c -4.46632,-1.04954 -7.76581,-2.60218 -11.12517,-5.23514 -2.54524,-1.99491 -4.45732,-4.43069 -7.5219,-9.58205 -1.4402,-2.42089 -8.20883,-13.83363 -15.0414,-25.36163 l -12.42284,-20.96 -24.06435,-0.082 -24.06434,-0.082 v -13.43802 -13.43798 h 31.6 31.6 l 12.54585,17.99869 c 6.90022,9.89926 12.73967,18.26352 12.97656,18.5872 0.39475,0.53939 1.872,-0.85802 17.69416,-16.73783 9.49488,-9.52947 17.30694,-17.44883 17.36013,-17.59859 0.0532,-0.14973 -3.69085,-3.09347 -8.32,-6.54166 -4.62919,-3.44819 -12.1967,-9.08259 -16.8167,-12.52087 l -8.4,-6.2488 V 304.84902 277.65995 H 168.15758 157.9365 l -2.07716,4.31954 c -4.42776,9.2077 -8.93608,15.65891 -15.54494,22.24412 -4.26459,4.24934 -7.20529,6.63982 -12.13123,9.86142 -10.20231,6.67239 -20.33077,10.30106 -32.8445,11.76711 -8.07981,0.94659 -18.81651,0.22576 -26.72926,-1.79456 -22.19803,-5.66765 -41.17489,-21.77486 -50.26199,-42.66145 l -1.55588,-3.57618 -37.926444,-0.0813 -37.92643,-0.0813 v -28.31871 -28.31869 h 38.55708 38.557084 l 1.6454,-3.28 c 12.37995,-24.67872 33.96758,-39.99343 60.56339,-42.96492 14.56033,-1.62678 30.08144,1.42297 43.36579,8.52098 11.03264,5.89489 21.53333,15.75819 28.17207,26.46205 1.85449,2.99006 4.46109,7.91524 5.24047,9.90189 l 0.53353,1.36 h 11.52573 11.52572 l -0.0831,-15.11013 -0.0831,-15.11013 -4,-2.44898 c -5.18874,-3.17676 -20.25552,-12.30402 -36.16,-21.90526 -12.02644,-7.26012 -12.78038,-7.77117 -15.53181,-10.52801 -2.32506,-2.32963 -3.18958,-3.47612 -4.41116,-5.84992 -2.18744,-4.25069 -2.85423,-7.02781 -2.86383,-11.92757 -0.01,-4.86184 0.64043,-7.58835 2.84338,-11.92757 l 1.4989,-2.95243 30.75226,-30.762799 c 33.241,-33.252451 32.07108,-32.187123 37.4722,-34.122586 10.2718,-3.680857 22.31622,-0.128828 28.70751,8.466173 0.90221,1.213277 8.23236,13.323939 16.28925,26.912586 l 14.64887,24.706626 24.17718,0.082 24.17718,0.082 v 13.43801 13.43799 l -31.76,-0.0161 -31.76,-0.0161 -6.24,-9.00237 c -3.432,-4.95131 -9.24636,-13.31321 -12.9208,-18.58199 l -6.68076,-9.5796 -17.39923,17.39701 c -9.56956,9.56835 -17.3992,17.49337 -17.3992,17.61114 0,0.11778 2.772,2.27257 6.16,4.78843 3.388,2.51586 10.948,8.14162 16.79999,12.5017 l 10.64,7.92741 v 26.24521 26.24526 h 10.6801 10.68013 l 1.3392,-2.79099 c 7.15971,-14.92122 19.26547,-27.67591 33.30057,-35.08564 15.57536,-8.22291 33.28032,-10.77532 50.33991,-7.2572 17.98873,3.70973 33.88614,13.75256 44.85139,28.33383 3.24278,4.31216 6.70512,10.07053 8.36528,13.91263 l 1.24342,2.87765 38.8,0.005 38.8,0.005 v 28.32 28.32 h -38.66217 -38.66218 l -1.07926,2.48 c -2.64237,6.07169 -7.46634,13.90513 -11.57741,18.8 -12.03213,14.3261 -27.63456,23.28413 -46.0384,26.43264 -3.66938,0.62774 -5.42778,0.73571 -11.98058,0.73571 -8.6656,0 -12.8406,-0.52851 -20.279,-2.56713 -17.29082,-4.73888 -32.84,-16.23223 -42.96288,-31.75639 -2.13581,-3.27543 -5.90909,-10.5977 -6.66036,-12.92483 l -0.38739,-1.2 h -11.0152 -11.01517 v 16.1272 16.12721 l 11.76,7.12425 c 6.468,3.91836 16.08,9.74096 21.36,12.93916 5.28,3.19818 11.328,6.86263 13.44,8.1432 5.50756,3.3394 7.48301,4.8168 9.79581,7.32612 2.65997,2.88592 3.97171,5.11712 5.31495,9.04028 2.53264,7.39712 1.47276,15.41479 -2.93652,22.21418 -1.53209,2.36259 -58.91772,60.02032 -61.77424,62.06717 -2.55817,1.83305 -5.36099,3.20841 -8.21484,4.03104 -3.04867,0.87878 -9.19502,1.12525 -11.94515,0.47901 z M 94.44228,301.80561 c 11.71154,-1.53309 21.72091,-6.30544 30.13312,-14.36713 3.14317,-3.0122 7.72327,-8.6654 7.72327,-9.53281 0,-0.13515 -19.944,-0.24572 -44.32,-0.24572 -24.376,0 -44.32,0.12226 -44.32,0.27168 0,0.70468 4.3129,5.99415 7.34515,9.00832 11.52533,11.4566 27.56035,16.94416 43.43846,14.86566 z m 213.06592,-0.28315 c 13.16378,-2.19776 25.38605,-9.67911 33.52121,-20.5186 1.18208,-1.57503 2.14925,-2.97174 2.14925,-3.1038 0,-0.13206 -20.03257,-0.24011 -44.5168,-0.24011 h -44.5168 l 0.56535,0.88 c 2.8919,4.50128 8.94061,10.68564 13.92301,14.23528 6.68518,4.76273 15.49232,8.09231 24.30524,9.18874 3.18362,0.39607 10.96516,0.16026 14.56954,-0.44151 z M 129.35855,219.5172 c -1.68108,-2.38351 -7.55418,-8.33402 -10.17988,-10.31406 -3.45443,-2.60498 -5.12215,-3.60226 -9.61026,-5.74684 -7.30179,-3.48907 -13.98196,-4.97272 -22.38974,-4.97272 -8.40779,0 -15.08796,1.48365 -22.38975,4.97272 -6.22236,2.97327 -9.55249,5.26986 -14.21813,9.80539 -2.42487,2.35724 -6.59212,7.17379 -6.59212,7.61922 0,0.0765 19.44894,0.13904 43.21988,0.13904 h 43.21988 z m 211.58011,1.25931 c 0,-0.54462 -4.53997,-5.83138 -6.89744,-8.03202 -4.50019,-4.20082 -8.14893,-6.6987 -13.42256,-9.18893 -10.34022,-4.88272 -20.95139,-6.29521 -32.1695,-4.2822 -12.18307,2.18615 -23.7209,8.9958 -31.39158,18.52733 -1.20941,1.50281 -2.19892,2.84192 -2.19892,2.97582 0,0.13389 19.368,0.24344 43.04,0.24344 23.672,0 43.04,-0.10955 43.04,-0.24344 z m -92,-153.692866 c -9.25276,-1.229613 -18.12409,-8.26337 -21.40035,-16.967578 -5.84694,-15.5339 2.79706,-32.032928 18.94624,-36.163197 3.36477,-0.860561 9.27872,-0.845608 12.72291,0.03217 12.65808,3.225978 21.34736,15.056996 20.51248,27.928995 -0.25088,3.867731 -0.93468,6.466947 -2.63657,10.021747 -5.10563,10.664212 -16.3488,16.715437 -28.14471,15.147863 z"
     id="path1437"
     inkscape:connector-curvature="0"
     sodipodi:nodetypes="ccccscsccccccscccccccccsccccccccscsscsccccccccsssccccccccsccscsscscccccccsccssscccccccssscccccccccscsccccccccccscccccccsssssssssssccccscscsccssccsscccsssssscccs" />
</svg>
